<?xml version="1.0" encoding="UTF-8"?>
<svg version="1.1" xmlns="http://www.w3.org/2000/svg" width="80" height="80">
<path d="M0 0 C0.99451172 -0.06251953 1.98902344 -0.12503906 3.01367188 -0.18945312 C10.28836101 -0.34917684 10.28836101 -0.34917684 13.35791016 2.38330078 C14.85848384 4.38303679 16.144908 6.35414011 17.3125 8.5625 C19.2925 8.2325 21.2725 7.9025 23.3125 7.5625 C23.9725 5.2525 24.6325 2.9425 25.3125 0.5625 C44.14948419 -0.90561028 44.14948419 -0.90561028 48.90234375 2.3203125 C50.41451205 4.68683584 51.37796126 6.91957371 52.3125 9.5625 C53.08417638 10.7836966 53.87430687 11.99354754 54.6875 13.1875 C57.81047205 19.67367273 55.97868681 26.01255276 54.37890625 32.70703125 C54.08281715 33.98352791 54.08281715 33.98352791 53.78074646 35.28581238 C53.36483547 37.07248669 52.94526408 38.85831249 52.5222168 40.64331055 C51.87330957 43.38213477 51.2355152 46.12336529 50.59960938 48.86523438 C50.19334839 50.60431631 49.7864692 52.34325397 49.37890625 54.08203125 C49.18720352 54.90282669 48.99550079 55.72362213 48.79798889 56.56929016 C47.42976225 62.32797549 47.42976225 62.32797549 46.3125 64.5625 C42.91755888 64.76652829 39.52419514 64.89034854 36.125 65 C34.68543945 65.08797852 34.68543945 65.08797852 33.21679688 65.17773438 C26.14131236 65.34911289 26.14131236 65.34911289 23.67260742 63.00610352 C22.84383535 61.75455703 22.05624271 60.47450634 21.31762695 59.16772461 C20.39180173 57.33962014 20.39180173 57.33962014 18.07421875 56.66015625 C16.15364583 56.62760417 14.23307292 56.59505208 12.3125 56.5625 C11.3225 59.2025 10.3325 61.8425 9.3125 64.5625 C-4.83008127 66.7494971 -4.83008127 66.7494971 -11.02832031 63.23535156 C-13.31816204 61.4931461 -15.342905 59.66104801 -17.375 57.625 C-18.35448608 56.66678345 -18.35448608 56.66678345 -19.35375977 55.68920898 C-23.67425532 50.92382604 -23.67425532 50.92382604 -23.70632935 47.62716675 C-23.18926987 41.98351756 -21.78853465 36.61682626 -20.21875 31.1875 C-19.97838013 30.33696045 -19.73801025 29.4864209 -19.49035645 28.61010742 C-18.98604734 26.83106926 -18.47831609 25.05299788 -17.96728516 23.27587891 C-17.18225534 20.54425041 -16.40867837 17.80956648 -15.63671875 15.07421875 C-15.14388969 13.34095789 -14.65042336 11.60787807 -14.15625 9.875 C-13.92393677 9.05531738 -13.69162354 8.23563477 -13.45227051 7.39111328 C-11.0107505 -1.0691956 -8.25588778 0.22568543 0 0 Z " fill="#746164" transform="translate(23.6875,7.4375)"/>
<path d="M0 0 C7.26 0 14.52 0 22 0 C20 10 20 10 19 12 C28.9 12 38.8 12 49 12 C47.3747457 20.93889864 45.40073702 29.27732217 43 38 C38.05 38 33.1 38 28 38 C28.51085812 31.56318772 29.72942897 26.04057576 32 20 C30.35 20 28.7 20 27 20 C26.34 23.3 25.68 26.6 25 30 C21.37 30 17.74 30 14 30 C14.875 22.25 14.875 22.25 16 20 C14.35 20 12.7 20 11 20 C11 20.66 11 21.32 11 22 C8.03 22 5.06 22 2 22 C2.33 20.02 2.66 18.04 3 16 C0.69 16 -1.62 16 -4 16 C-3.71515154 14.26969709 -3.42180062 12.54079286 -3.125 10.8125 C-2.96257813 9.84957031 -2.80015625 8.88664062 -2.6328125 7.89453125 C-2 5 -2 5 0 0 Z " fill="#B9DEBC" transform="translate(13,18)"/>
<path d="M0 0 C0.33 0.66 0.66 1.32 1 2 C4.3 2 7.6 2 11 2 C11 1.34 11 0.68 11 0 C12.65 0 14.3 0 16 0 C15.34 3.3 14.68 6.6 14 10 C17.63 10 21.26 10 25 10 C25.144375 8.906875 25.28875 7.81375 25.4375 6.6875 C26 3 26 3 27 0 C28.65 0 30.3 0 32 0 C31.68817931 1.41681634 31.37551263 2.83344651 31.0625 4.25 C30.88847656 5.03890625 30.71445312 5.8278125 30.53515625 6.640625 C30.21366118 8.05801931 29.85711613 9.46905327 29.43359375 10.859375 C28.4682373 15.62527893 28.23326504 18.83772716 30.96875 22.984375 C31.8040625 23.89703125 32.639375 24.8096875 33.5 25.75 C38 30.72222222 38 30.72222222 38 34 C37.34 34 36.68 34 36 34 C35.24738828 32.88275082 34.54688613 31.73007834 33.875 30.5625 C32.32842882 28.25889848 31.55981953 27.18279821 28.89453125 26.3125 C26.44687204 25.99958944 26.44687204 25.99958944 23 26 C22.01 28.64 21.02 31.28 20 34 C5.53277269 36.2372001 5.53277269 36.2372001 -0.32470703 32.52783203 C-5.07433743 28.51472483 -9.14388519 23.86543345 -13 19 C-12.34 17.35 -11.68 15.7 -11 14 C-10.67 14 -10.34 14 -10 14 C-9.76925781 14.86882813 -9.53851563 15.73765625 -9.30078125 16.6328125 C-6.89810575 22.85235089 -2.40064856 27.27160045 3 31 C7.50001361 31.87959229 11.48610748 31.71045367 16 31 C15.26652344 30.21496094 14.53304688 29.42992188 13.77734375 28.62109375 C12.82967819 27.56083426 11.88312118 26.49958322 10.9375 25.4375 C10.20950195 24.66696289 10.20950195 24.66696289 9.46679688 23.88085938 C6.69171708 20.71215124 5.98172959 19.37249269 6.19140625 15.09765625 C6.45824219 14.07542969 6.72507812 13.05320312 7 12 C3.7 12 0.4 12 -3 12 C-1.125 2.25 -1.125 2.25 0 0 Z " fill="#756264" transform="translate(13,38)"/>
<path d="M0 0 C1.65 0 3.3 0 5 0 C4.40380045 4.86896303 3.43023178 9.32790951 2 14 C5.3 14 8.6 14 12 14 C11.896875 15.02351563 11.79375 16.04703125 11.6875 17.1015625 C12.06772444 21.84486244 13.87712542 24.04112038 17 27.375 C22 32.95608108 22 32.95608108 22 34 C16.51106245 34.96282713 11.05131721 35.67569241 6.02880859 32.91748047 C1.58727307 29.70726172 -2.39022437 25.86175945 -5 21 C-5.66022998 16.46642081 -4.65054941 13.2141687 -3 9 C-2.4581173 7.25006688 -1.916429 5.50007354 -1.375 3.75 C-0.92125 2.5125 -0.4675 1.275 0 0 Z " fill="#D3A86F" transform="translate(8,36)"/>
<path d="M0 0 C5.24334257 -0.68391425 9.81183138 -0.94798712 15 0 C19.71588724 3.7279741 23.09468476 8.28405427 25 14 C12.63075755 15.78117091 12.63075755 15.78117091 8.30810547 12.85449219 C4.94920763 9.65952142 2.34451627 5.9829194 0 2 C0 1.34 0 0.68 0 0 Z " fill="#D3A86F" transform="translate(41,56)"/>
<path d="M0 0 C5.28 0 10.56 0 16 0 C15.48914188 6.43681228 14.27057103 11.95942424 12 18 C9.36 18 6.72 18 4 18 C4.66 14.37 5.32 10.74 6 7 C3.69 6.67 1.38 6.34 -1 6 C-0.67 4.02 -0.34 2.04 0 0 Z " fill="#B7DBB9" transform="translate(51,10)"/>
<path d="M0 0 C1.65 0 3.3 0 5 0 C4.40380045 4.86896303 3.43023178 9.32790951 2 14 C5.3 14 8.6 14 12 14 C11.67 15.98 11.34 17.96 11 20 C5.72 20 0.44 20 -5 20 C-4.35737498 17.04093596 -3.7110539 14.08276484 -3.0625 11.125 C-2.78889648 9.86236328 -2.78889648 9.86236328 -2.50976562 8.57421875 C-2.33251953 7.76855469 -2.15527344 6.96289062 -1.97265625 6.1328125 C-1.81031494 5.38918457 -1.64797363 4.64555664 -1.48071289 3.87939453 C-1 2 -1 2 0 0 Z " fill="#B8DCBA" transform="translate(8,36)"/>
<path d="M0 0 C3.96 0 7.92 0 12 0 C11.34 3.3 10.68 6.6 10 10 C6.04 10 2.08 10 -2 10 C-1.46019653 6.60694964 -0.83449189 3.33796756 0 0 Z " fill="#B9DEBB" transform="translate(43,18)"/>
<path d="M0 0 C5.61 0 11.22 0 17 0 C16.67 1.98 16.34 3.96 16 6 C10.39 6 4.78 6 -1 6 C-0.67 4.02 -0.34 2.04 0 0 Z " fill="#B8DDBB" transform="translate(15,10)"/>
<path d="M0 0 C3.63 0 7.26 0 11 0 C11.144375 0.9075 11.28875 1.815 11.4375 2.75 C12.15987933 6.92374723 12.99442079 10.25625214 15 14 C12.83203125 14.40234375 12.83203125 14.40234375 10 14 C7.97498984 11.87447839 6.36339205 9.9335769 4.6875 7.5625 C4.23310547 6.95083984 3.77871094 6.33917969 3.31054688 5.70898438 C0 1.20365367 0 1.20365367 0 0 Z " fill="#D1A66F" transform="translate(27,48)"/>
<path d="M0 0 C2.64 0 5.28 0 8 0 C8.042721 1.66611905 8.04063832 3.33382885 8 5 C7 6 7 6 5.15234375 6.09765625 C3.1015625 6.06510417 1.05078125 6.03255208 -1 6 C-0.67 4.02 -0.34 2.04 0 0 Z " fill="#B8DCBA" transform="translate(14,42)"/>
<path d="M0 0 C0.33 0.99 0.66 1.98 1 3 C1.66 3 2.32 3 3 3 C2.67 4.98 2.34 6.96 2 9 C1.34 8.67 0.68 8.34 0 8 C-0.66 8.66 -1.32 9.32 -2 10 C-1.34 6.7 -0.68 3.4 0 0 Z " fill="#837E78" transform="translate(2,45)"/>
<path d="M0 0 C0.66 0.66 1.32 1.32 2 2 C1.625 5.625 1.625 5.625 1 9 C0.01 9 -0.98 9 -2 9 C-1.34 6.03 -0.68 3.06 0 0 Z " fill="#827C77" transform="translate(55,18)"/>
</svg>
